<?xml version="1.0" encoding="utf-8"?>
<!-- Generator: $$$/GeneralStr/196=Adobe Illustrator 27.6.0, SVG Export Plug-In . SVG Version: 6.00 Build 0)  -->
<svg version="1.1" id="Calque_1" xmlns="http://www.w3.org/2000/svg" xmlns:xlink="http://www.w3.org/1999/xlink" x="0px" y="0px"
	 viewBox="0 0 45.5 43.1" style="enable-background:new 0 0 45.5 43.1;" xml:space="preserve">
<style type="text/css">
	.st0{fill:#FFFFFF;}
	.st1{opacity:0.5;}
	.st2{fill:#19414A;}
	.st3{fill:#1A414A;}
	.st4{fill:#89C8AB;}
	.st5{fill:#4A8AC3;}
	.st6{fill:#4989C1;}
	.st7{fill:#87C7A9;}
	.st8{fill:#81B2D7;}
	.st9{fill:#DCDE92;}
</style>
<g>
	<g>
		<path class="st9" d="M41,34.6c-0.4,0.5-0.9,1-1.4,1.4c-2.6,2.3-5.9,3.6-9.3,3.6c-0.5,0-1,0-1.4-0.1c-4.5-0.5-8.2-3.2-10.6-7.7
			c-2.1-4.1-7-4.1-9.3-4.1H8.8c-2.7,0-4.7-1.8-4.7-4.3V5.1h21c1.6,0,3.2,0.4,4.7,1c1.3,0.6,2.5,1.4,3.5,2.4c1.8,1.8,2.9,4.1,3.2,6.5
			c0.1,0.5,0.1,0.9,0.1,1.4c0,1.6-0.4,3.2-1.1,4.7c-0.6,1.3-1.4,2.4-2.5,3.4c-0.8,0.7-1.7,1.4-2.7,1.9l-2.1,1.1
			c-0.2-0.3-0.4-0.6-0.5-0.9c-0.2-0.4-0.4-0.8-0.7-1.1l2.3-1.1c0,0,0,0,0.1,0c0.8-0.4,1.6-1,2.3-1.6c0.7-0.7,1.3-1.5,1.7-2.5
			c0.5-1.2,0.8-2.4,0.9-3.7c0-2.3-0.9-4.6-2.6-6.3c-1.7-1.7-4.1-2.7-6.5-2.7H6.4v16.1c0,1,0.7,1.8,1.9,1.9c0.1,0,0.3,0,0.4,0h0.1
			c1.4,0,4.2,0,6.9,1.2c1.8,0.8,3.4,2.1,4.5,4.2c1.6,3.2,4.1,5.3,7,6.1c0.6,0.2,1.2,0.3,1.8,0.4c0.4,0,0.8,0.1,1.2,0.1
			c2.9,0,5.8-1.2,8-3.2c0.4-0.3,0.7-0.7,1-1l0.3,0.2L41,34.6z"/>
	</g>
	<g>
		<path class="st9" d="M36.7,31c-0.1,0.2-0.3,0.3-0.4,0.5c-1.6,1.6-3.8,2.6-6,2.6c-0.3,0-0.5,0-0.8,0c-2.6-0.3-4.7-1.9-6.2-4.7
			c-2.2-4.2-6.4-6.5-12.1-6.6l-1.4,0V10.7h15.4c1,0,2,0.3,2.8,0.7c1.4,0.8,2.4,2.1,2.7,3.7c0,0.2,0.1,0.5,0.1,0.7c0,0.5,0,1-0.1,1.5
			c-0.2,0.9-0.6,1.8-1.2,2.5c-0.5,0.6-1.1,1.1-1.8,1.4l-3,1.5c-0.6-0.6-1.2-1.1-1.9-1.5l-0.1-0.1l2.6-1.3l1.3-0.7
			c0.5-0.3,1-0.7,1.3-1.2c0.2-0.3,0.4-0.7,0.4-1.1c0.1-0.3,0.1-0.6,0.1-0.9c-0.1-1.7-1.6-3-3.3-3h-13v7.3c2.4,0.1,4.6,0.6,6.5,1.5
			c3,1.3,5.2,3.4,6.8,6.3c0.7,1.4,1.9,3,3.9,3.4c0.1,0,0.3,0.1,0.4,0.1c0.2,0,0.4,0,0.5,0c1.7,0,3.4-0.8,4.6-2.1c0,0,0,0,0,0l0,0
			L36.7,31z"/>
	</g>
</g>
</svg>
