<?xml version="1.0" encoding="utf-8"?>
<!-- Generator: $$$/GeneralStr/196=Adobe Illustrator 27.6.0, SVG Export Plug-In . SVG Version: 6.00 Build 0)  -->
<svg version="1.1" id="Calque_1" xmlns="http://www.w3.org/2000/svg" xmlns:xlink="http://www.w3.org/1999/xlink" x="0px" y="0px"
	 viewBox="0 0 155.8 42.2" style="enable-background:new 0 0 155.8 42.2;" xml:space="preserve">
<style type="text/css">
	.st0{fill:#FFFFFF;}
	.st1{opacity:0.5;}
	.st2{fill:#19414A;}
	.st3{fill:#1A414A;}
	.st4{fill:#89C8AB;}
	.st5{fill:#4A8AC3;}
	.st6{fill:#4989C1;}
	.st7{fill:#87C7A9;}
	.st8{fill:#81B2D7;}
	.st9{fill:#DCDE92;}
</style>
<path class="st0" d="M67,22.4c-0.3,0-0.7-0.2-1.2-0.4c-1.5-0.7-2.5-1.8-3.1-3.5c1.5-0.4,2.8-1,3.7-2c0.5-0.6,1-1.3,1.3-2
	c0.3-0.8,0.5-1.7,0.5-2.9c0-1.1-0.2-2.2-0.7-3.1c-1.2-2.5-3.9-3.7-8-3.7h-6.3v21.4h3.9v-7.3h0c1,0,1.9,0.6,2.2,1.5
	c0.5,1.2,1.3,2.3,2.3,3.3c1.6,1.7,3.7,2.5,6,2.5h1.2v-3.8C68.8,22.4,67.9,22.5,67,22.4z M64.1,11.8c0,1.3-0.4,2.2-1.1,2.8
	c-0.8,0.6-2,0.9-3.7,0.9h-2.2V8.2h2.5c0.8,0,1.6,0.1,2.1,0.3C63.3,9,64.1,10.1,64.1,11.8z"/>
<path class="st0" d="M73.8,26.2h14.3v-3.6H77.7v-3.3c0-1.4,1.1-2.4,2.4-2.4h5.4v-3.5h-7.8v-5h10.3V4.9H73.8V26.2z"/>
<path class="st0" d="M102.4,22.7c-2.5,0-4.4-0.7-5.7-2.1c-1.2-1.3-1.8-3.1-1.8-5.3c0-2.2,0.6-3.9,1.8-5.1c0.6-0.6,1.4-1.1,2.3-1.4
	c0.9-0.3,2.1-0.5,3.5-0.5c1.4,0,2.4,0.1,3.1,0.3l0.6,0.2V4.9l-0.4-0.1c-0.8-0.1-1.8-0.2-3.1-0.2c-1.3,0-2.4,0.1-3.3,0.3
	C96.3,5.5,94,7,92.5,9.3c-1.1,1.7-1.7,3.7-1.7,6c0,3.5,1.1,6.3,3.2,8.3c1,0.9,2.2,1.6,3.6,2.1c1.4,0.5,2.9,0.7,4.6,0.7
	c1.7,0,3-0.1,4-0.3l0.4-0.1v-3.9l-0.6,0.1C105.1,22.6,103.9,22.7,102.4,22.7z"/>
<path class="st0" d="M126.7,7.6c-1.9-2-4.3-3-7.4-3c-3,0-5.5,1-7.4,3c-0.9,1-1.6,2.1-2.1,3.5c-0.5,1.3-0.8,2.9-0.8,4.5
	c0,3.3,1,6,2.9,8c1.9,2,4.4,3,7.4,3c3,0,5.5-1,7.4-3c1.9-2,2.9-4.7,2.9-8C129.6,12.3,128.6,9.6,126.7,7.6z M125.6,15.6
	c0,2.1-0.5,3.9-1.5,5.3c-1.1,1.5-2.7,2.3-4.8,2.3c-2.1,0-3.6-0.7-4.8-2.3c-1-1.4-1.5-3.2-1.5-5.3c0-2.1,0.5-3.9,1.5-5.3
	c1.1-1.5,2.7-2.3,4.8-2.3c2.1,0,3.6,0.7,4.8,2.3C125.1,11.7,125.6,13.4,125.6,15.6z"/>
<path class="st0" d="M42.2,33.4l-4-3.4c-0.1-0.1-0.2-0.1-0.2-0.1c-0.1,0-0.2,0-0.3,0.1c-1.4,1.7-3.6,2.7-5.8,2.7c-0.2,0-0.5,0-0.7,0
	c-2.3-0.3-4.2-1.7-5.5-4.3c-2.5-4.8-7.3-7.5-13.8-7.6l-0.3,0V10.8h14.9c2.5,0,4.5,1.9,4.7,4.3c0,0.4,0,0.8-0.1,1.2
	c-0.3,1.4-1.2,2.6-2.5,3.2l-3.2,1.6c-0.1,0.1-0.2,0.1-0.2,0.3c0,0.1,0,0.2,0.1,0.3c1,1,1.9,2.2,2.6,3.5c0,0.1,0.2,0.3,0.5,0.8
	c0.1,0.1,0.2,0.2,0.3,0.2c0.1,0,0.1,0,0.2,0l2.5-1.3c2.1-1.1,3.8-2.8,4.8-4.9c0.7-1.4,1-2.8,1-4.4c0-2.8-1.1-5.4-3.1-7.4
	c-2-2.1-4.9-3.2-7.7-3.2H5.6V23c0,1.9,1.5,3.2,3.7,3.2h0.2c2.5,0,8.3,0,10.9,5c2.3,4.3,5.9,7,10.1,7.5c0.5,0.1,0.9,0.1,1.4,0.1
	c3.9,0,7.8-1.8,10.3-4.8C42.3,33.7,42.3,33.5,42.2,33.4z"/>
<g class="st1">
	<path class="st0" d="M52.8,34.3c0-1.9,0.9-3,2.3-3c0.9,0,1.6,0.5,1.9,1.2l-0.6,0.3c-0.2-0.6-0.7-1-1.4-1c-1,0-1.6,0.8-1.6,1.9v0.8
		c0,1.2,0.6,1.9,1.6,1.9c0.7,0,1.2-0.4,1.4-1l0.5,0.3c-0.4,0.8-1,1.3-2,1.3C53.7,37.2,52.8,36.2,52.8,34.3z"/>
	<path class="st0" d="M57.8,35c0-1.3,0.8-2.2,1.9-2.2s1.9,0.9,1.9,2.2c0,1.3-0.8,2.2-1.9,2.2S57.8,36.3,57.8,35z M60.9,35.3v-0.6
		c0-0.9-0.5-1.3-1.2-1.3c-0.7,0-1.2,0.4-1.2,1.3v0.6c0,0.9,0.5,1.3,1.2,1.3C60.4,36.6,60.9,36.2,60.9,35.3z"/>
	<path class="st0" d="M62.7,37.1v-4.2h0.6v0.7h0c0.2-0.4,0.5-0.8,1.1-0.8c0.6,0,1.1,0.3,1.3,0.9h0c0.2-0.5,0.6-0.9,1.3-0.9
		c0.9,0,1.4,0.6,1.4,1.6v2.7h-0.6v-2.6c0-0.7-0.3-1.1-0.9-1.1c-0.5,0-1,0.3-1,0.8v2.9h-0.7v-2.6c0-0.7-0.3-1.1-0.9-1.1
		c-0.5,0-1,0.3-1,0.8v2.9H62.7z"/>
	<path class="st0" d="M69.8,37.1v-4.2h0.7v0.7h0c0.2-0.4,0.5-0.8,1.1-0.8c0.6,0,1.1,0.3,1.3,0.9h0c0.2-0.5,0.6-0.9,1.3-0.9
		c0.9,0,1.4,0.6,1.4,1.6v2.7h-0.7v-2.6c0-0.7-0.3-1.1-0.9-1.1c-0.5,0-1,0.3-1,0.8v2.9h-0.6v-2.6c0-0.7-0.3-1.1-0.9-1.1
		c-0.5,0-1,0.3-1,0.8v2.9H69.8z"/>
	<path class="st0" d="M76.8,31.5v-0.1c0-0.2,0.1-0.4,0.4-0.4s0.4,0.1,0.4,0.4v0.1c0,0.2-0.1,0.4-0.4,0.4S76.8,31.8,76.8,31.5z
		 M76.9,32.9h0.6v4.2h-0.6V32.9z"/>
	<path class="st0" d="M78.5,36.3L79,36c0.3,0.4,0.7,0.6,1.2,0.6c0.6,0,0.9-0.3,0.9-0.7c0-0.3-0.2-0.6-0.7-0.7L80,35.2
		c-0.8-0.1-1.3-0.4-1.3-1.2c0-0.8,0.6-1.2,1.5-1.2c0.7,0,1.1,0.3,1.5,0.7l-0.4,0.4c-0.2-0.3-0.5-0.5-1.1-0.5c-0.5,0-0.8,0.3-0.8,0.7
		c0,0.4,0.3,0.6,0.8,0.6l0.3,0.1c0.9,0.1,1.3,0.5,1.3,1.2c0,0.8-0.6,1.3-1.5,1.3C79.4,37.2,78.9,36.8,78.5,36.3z"/>
	<path class="st0" d="M82.4,36.3l0.5-0.4c0.3,0.4,0.7,0.6,1.2,0.6c0.6,0,0.9-0.3,0.9-0.7c0-0.3-0.2-0.6-0.7-0.7l-0.3-0.1
		c-0.8-0.1-1.3-0.4-1.3-1.2c0-0.8,0.6-1.2,1.5-1.2c0.7,0,1.1,0.3,1.5,0.7l-0.4,0.4c-0.2-0.3-0.5-0.5-1.1-0.5c-0.5,0-0.8,0.3-0.8,0.7
		c0,0.4,0.3,0.6,0.8,0.6l0.3,0.1c0.9,0.1,1.3,0.5,1.3,1.2c0,0.8-0.6,1.3-1.6,1.3C83.3,37.2,82.8,36.8,82.4,36.3z"/>
	<path class="st0" d="M89.8,37.1c-0.5,0-0.7-0.3-0.7-0.7h0c-0.2,0.5-0.6,0.8-1.2,0.8c-0.9,0-1.4-0.5-1.4-1.3c0-0.8,0.6-1.2,1.8-1.2
		H89v-0.4c0-0.6-0.3-0.9-1-0.9c-0.5,0-0.8,0.2-1.1,0.6l-0.4-0.4c0.2-0.4,0.7-0.8,1.5-0.8c1,0,1.6,0.5,1.6,1.4v2.3h0.5v0.6H89.8z
		 M89,35.8v-0.7h-0.9c-0.7,0-1.1,0.2-1.1,0.6V36c0,0.4,0.3,0.7,0.8,0.7C88.6,36.6,89,36.3,89,35.8z"/>
	<path class="st0" d="M91.1,37.1v-4.2h0.6v0.8h0c0.1-0.4,0.5-0.8,1.2-0.8h0.3v0.6h-0.4c-0.7,0-1.1,0.3-1.1,0.7v2.8H91.1z"/>
	<path class="st0" d="M94,31.5v-0.1c0-0.2,0.1-0.4,0.4-0.4s0.4,0.1,0.4,0.4v0.1c0,0.2-0.1,0.4-0.4,0.4S94,31.8,94,31.5z M94.1,32.9
		h0.6v4.2h-0.6V32.9z"/>
	<path class="st0" d="M99.2,37.1c-0.5,0-0.7-0.3-0.7-0.7h0c-0.2,0.5-0.6,0.8-1.2,0.8c-0.9,0-1.4-0.5-1.4-1.3c0-0.8,0.6-1.2,1.8-1.2
		h0.8v-0.4c0-0.6-0.3-0.9-1-0.9c-0.5,0-0.8,0.2-1.1,0.6L96,33.6c0.2-0.4,0.7-0.8,1.5-0.8c1,0,1.6,0.5,1.6,1.4v2.3h0.5v0.6H99.2z
		 M98.4,35.8v-0.7h-0.9c-0.7,0-1.1,0.2-1.1,0.6V36c0,0.4,0.3,0.7,0.8,0.7C97.9,36.6,98.4,36.3,98.4,35.8z"/>
	<path class="st0" d="M101.4,37.1c-0.4,0-0.7-0.3-0.7-0.7v-2.9H100v-0.6h0.4c0.3,0,0.4-0.1,0.4-0.4v-0.8h0.6v1.2h0.9v0.6h-0.9v3.1
		h0.9v0.6H101.4z"/>
	<path class="st0" d="M108.3,37.1c-0.5,0-0.7-0.3-0.7-0.7h0c-0.2,0.5-0.6,0.8-1.2,0.8c-0.9,0-1.4-0.5-1.4-1.3c0-0.8,0.6-1.2,1.8-1.2
		h0.8v-0.4c0-0.6-0.3-0.9-1-0.9c-0.5,0-0.8,0.2-1.1,0.6l-0.4-0.4c0.2-0.4,0.7-0.8,1.5-0.8c1,0,1.6,0.5,1.6,1.4v2.3h0.5v0.6H108.3z
		 M107.5,35.8v-0.7h-0.9c-0.7,0-1.1,0.2-1.1,0.6V36c0,0.4,0.3,0.7,0.8,0.7C107.1,36.6,107.5,36.3,107.5,35.8z"/>
	<path class="st0" d="M112.2,36.4L112.2,36.4c-0.2,0.4-0.5,0.8-1.2,0.8c-0.9,0-1.4-0.6-1.4-1.6v-2.7h0.6v2.6c0,0.7,0.3,1.1,1,1.1
		c0.5,0,1-0.3,1-0.8v-2.9h0.6v4.2h-0.6V36.4z"/>
	<path class="st0" d="M115.2,35l-1.5-2.1h0.8l1.1,1.6h0l1.1-1.6h0.7l-1.5,2l1.5,2.2h-0.8l-1.1-1.6h0l-1.2,1.6h-0.7L115.2,35z"/>
	<path class="st0" d="M120,34.3c0-1.9,0.9-3,2.3-3c0.9,0,1.6,0.5,1.9,1.2l-0.6,0.3c-0.2-0.6-0.7-1-1.4-1c-1,0-1.6,0.8-1.6,1.9v0.8
		c0,1.2,0.6,1.9,1.6,1.9c0.7,0,1.2-0.4,1.4-1l0.5,0.3c-0.4,0.8-1,1.3-2,1.3C120.9,37.2,120,36.2,120,34.3z"/>
	<path class="st0" d="M125,35c0-1.3,0.8-2.2,1.9-2.2c1.1,0,1.9,0.9,1.9,2.2c0,1.3-0.8,2.2-1.9,2.2C125.8,37.2,125,36.3,125,35z
		 M128.1,35.3v-0.6c0-0.9-0.5-1.3-1.2-1.3s-1.2,0.4-1.2,1.3v0.6c0,0.9,0.5,1.3,1.2,1.3S128.1,36.2,128.1,35.3z"/>
	<path class="st0" d="M129.9,37.1v-4.2h0.6v0.7h0c0.2-0.4,0.5-0.8,1.1-0.8c0.6,0,1.1,0.3,1.3,0.9h0c0.2-0.5,0.6-0.9,1.3-0.9
		c0.8,0,1.4,0.6,1.4,1.6v2.7H135v-2.6c0-0.7-0.3-1.1-0.9-1.1c-0.5,0-1,0.3-1,0.8v2.9h-0.7v-2.6c0-0.7-0.3-1.1-0.9-1.1
		c-0.5,0-1,0.3-1,0.8v2.9H129.9z"/>
	<path class="st0" d="M137,32.9h0.6v0.7h0c0.2-0.5,0.6-0.8,1.2-0.8c1,0,1.7,0.9,1.7,2.2c0,1.3-0.7,2.2-1.7,2.2c-0.6,0-1-0.3-1.2-0.8
		h0v2.3H137V32.9z M139.9,35.3v-0.7c0-0.7-0.5-1.3-1.2-1.3c-0.6,0-1.1,0.3-1.1,0.8v1.6c0,0.5,0.5,0.9,1.1,0.9
		C139.4,36.6,139.9,36.1,139.9,35.3z"/>
	<path class="st0" d="M142.5,37.1c-0.4,0-0.7-0.3-0.7-0.7v-2.9h-0.7v-0.6h0.4c0.3,0,0.4-0.1,0.4-0.4v-0.8h0.6v1.2h0.9v0.6h-0.9v3.1
		h0.9v0.6H142.5z"/>
	<path class="st0" d="M144.1,35c0-1.3,0.7-2.2,1.9-2.2c1.1,0,1.8,0.9,1.8,2v0.3h-3v0.2c0,0.7,0.5,1.3,1.2,1.3c0.5,0,0.9-0.3,1.2-0.7
		l0.5,0.3c-0.3,0.6-0.9,1-1.7,1C144.9,37.2,144.1,36.3,144.1,35z M144.8,34.6L144.8,34.6l2.3,0.1v-0.1c0-0.7-0.4-1.2-1.1-1.2
		C145.3,33.3,144.8,33.9,144.8,34.6z"/>
	<path class="st0" d="M148.5,36.3L149,36c0.3,0.4,0.7,0.6,1.2,0.6c0.6,0,0.9-0.3,0.9-0.7c0-0.3-0.2-0.6-0.7-0.7l-0.3-0.1
		c-0.8-0.1-1.3-0.4-1.3-1.2c0-0.8,0.6-1.2,1.5-1.2c0.7,0,1.1,0.3,1.5,0.7l-0.4,0.4c-0.2-0.3-0.5-0.5-1.1-0.5c-0.5,0-0.8,0.3-0.8,0.7
		c0,0.4,0.3,0.6,0.8,0.6l0.3,0.1c0.9,0.1,1.3,0.5,1.3,1.2c0,0.8-0.6,1.3-1.5,1.3C149.4,37.2,148.9,36.8,148.5,36.3z"/>
</g>
</svg>
