<?xml version="1.0" encoding="utf-8"?>
<!-- Generator: $$$/GeneralStr/196=Adobe Illustrator 27.6.0, SVG Export Plug-In . SVG Version: 6.00 Build 0)  -->
<svg version="1.1" id="Calque_1" xmlns="http://www.w3.org/2000/svg" xmlns:xlink="http://www.w3.org/1999/xlink" x="0px" y="0px"
	 viewBox="0 0 45.5 43.1" style="enable-background:new 0 0 45.5 43.1;" xml:space="preserve">
<style type="text/css">
	.st0{fill:#FFFFFF;}
	.st1{opacity:0.5;}
	.st2{fill:#f26267;}
	.st3{fill:#f26267;}
	.st4{fill:#f26267;}
	.st5{fill:#f26267;}
	.st6{fill:#f26267;}
	.st7{fill:#f26267;}
	.st8{fill:#f26267;}
	.st9{fill:#f26267;}
</style>
<path class="st5" d="M41.4,33.8l-4-3.4c-0.1-0.1-0.2-0.1-0.2-0.1c-0.1,0-0.2,0-0.3,0.1c-1.4,1.7-3.6,2.7-5.8,2.7c-0.2,0-0.5,0-0.7,0
	c-2.3-0.3-4.2-1.7-5.5-4.3c-2.5-4.8-7.3-7.5-13.8-7.6l-0.3,0V11.2h14.9c2.5,0,4.5,1.9,4.7,4.3c0,0.4,0,0.8-0.1,1.2
	c-0.3,1.4-1.2,2.6-2.5,3.2l-3.2,1.6c-0.1,0.1-0.2,0.1-0.2,0.3c0,0.1,0,0.2,0.1,0.3c1,1,1.9,2.2,2.6,3.5c0,0.1,0.2,0.3,0.5,0.8
	c0.1,0.1,0.2,0.2,0.3,0.2c0.1,0,0.1,0,0.2,0l2.5-1.3c2.1-1.1,3.8-2.8,4.8-4.9c0.7-1.4,1-2.9,1-4.4c0-2.8-1.1-5.4-3.1-7.4
	c-2-2.1-4.9-3.2-7.7-3.2H4.8v18.1c0,1.9,1.5,3.3,3.7,3.3h0.2c2.5,0,8.3,0,10.9,5c2.3,4.3,5.9,7,10.1,7.5c0.5,0.1,0.9,0.1,1.4,0.1
	c3.9,0,7.8-1.8,10.3-4.8C41.6,34.1,41.5,33.9,41.4,33.8z"/>
</svg>
